<svg width="400" height="200" viewBox="0 0 400 200" fill="none" xmlns="http://www.w3.org/2000/svg">
  <rect width="400" height="200" fill="#60A5FA"/>
  <rect x="50" y="50" width="300" height="100" fill="#1E40AF"/>
  <text x="200" y="80" font-family="Arial" font-size="16" fill="#F0F9FF" text-anchor="middle">AI-Powered Chatbot</text>
  
  <!-- Chat interface -->
  <rect x="80" y="90" width="240" height="50" rx="8" fill="#F0F9FF"/>
  
  <!-- Chat bubbles -->
  <rect x="90" y="100" width="100" height="30" rx="15" fill="#2563EB"/>
  <rect x="210" y="100" width="100" height="30" rx="15" fill="#1E40AF"/>
  
  <!-- Chat icons -->
  <circle cx="110" cy="115" r="8" fill="#F0F9FF"/>
  <circle cx="230" cy="115" r="8" fill="#F0F9FF"/>
  
  <!-- Connection lines representing AI/LLM -->
  <path d="M140 150L170 130L200 150L230 130L260 150" stroke="#F0F9FF" stroke-width="2" stroke-dasharray="4 2"/>
  
  <!-- AI brain symbol -->
  <circle cx="200" cy="160" r="15" fill="#F0F9FF" fill-opacity="0.5" stroke="#F0F9FF" stroke-width="1"/>
  <path d="M190 160C190 155 195 150 200 155C205 150 210 155 210 160C210 165 205 170 200 165C195 170 190 165 190 160Z" fill="#F0F9FF"/>
</svg>